<?xml version="1.0" encoding="UTF-8"?>
<svg xmlns="http://www.w3.org/2000/svg" viewBox="0 0 200 200">
  <!-- Background circle -->
  <circle cx="100" cy="100" r="95" fill="#667eea" opacity="0.1" stroke="#667eea" stroke-width="2"/>
  
  <!-- Gradient -->
  <defs>
    <linearGradient id="grad1" x1="0%" y1="0%" x2="100%" y2="100%">
      <stop offset="0%" style="stop-color:#667eea;stop-opacity:1" />
      <stop offset="100%" style="stop-color:#764ba2;stop-opacity:1" />
    </linearGradient>
  </defs>
  
  <!-- Main building shape -->
  <g transform="translate(100, 100)">
    <!-- Building structure -->
    <rect x="-35" y="-45" width="70" height="80" fill="url(#grad1)" rx="8"/>
    
    <!-- Windows -->
    <rect x="-28" y="-35" width="12" height="12" fill="white" opacity="0.9"/>
    <rect x="-8" y="-35" width="12" height="12" fill="white" opacity="0.9"/>
    <rect x="12" y="-35" width="12" height="12" fill="white" opacity="0.9"/>
    
    <rect x="-28" y="-15" width="12" height="12" fill="white" opacity="0.9"/>
    <rect x="-8" y="-15" width="12" height="12" fill="white" opacity="0.9"/>
    <rect x="12" y="-15" width="12" height="12" fill="white" opacity="0.9"/>
    
    <rect x="-28" y="5" width="12" height="12" fill="white" opacity="0.9"/>
    <rect x="-8" y="5" width="12" height="12" fill="white" opacity="0.9"/>
    <rect x="12" y="5" width="12" height="12" fill="white" opacity="0.9"/>
    
    <!-- Door -->
    <rect x="-10" y="22" width="20" height="25" fill="white" opacity="0.7" rx="2"/>
    
    <!-- Roof -->
    <polygon points="-40,-45 0,-65 40,-45" fill="#764ba2"/>
  </g>
</svg>
